<svg width="110" height="99" viewBox="0 0 110 99" fill="none" xmlns="http://www.w3.org/2000/svg">
<path d="M33.0307 95.31C12.6007 89.23 -1.25936 73.27 0.0906363 57.39C4.11064 59.69 8.99062 61.21 14.0706 61.75C13.3906 53.57 12.714 45.39 12.0407 37.21C16.3707 39.81 21.3907 41.82 26.7407 43.12C28.1707 32.9 31.4707 22.82 36.5307 13.23C41.264 17.81 45.9973 22.3933 50.7307 26.98C51.9707 17.56 55.8606 8.33 62.1006 0C68.5006 7.34 73.6407 15.25 77.3807 23.49C80.9007 20.44 83.7007 16.97 85.6207 13.26C92.3607 20.15 95.4706 28.84 94.2106 37.22C97.604 34.8266 101.194 32.6 104.981 30.54C109.991 39.87 107.931 50.98 99.7106 59.04C103.471 57.98 106.961 56.41 109.921 54.43C108.741 68.14 99.4207 81.59 84.0107 89.7C68.6007 97.8 47.4607 99.61 33.0307 95.31Z" fill="#F7941D"/>
<path d="M6.88086 29.5801C6.88086 29.5801 20.7509 43.2201 20.7509 45.4901H33.7709C33.7709 45.4901 17.6909 30.3201 6.88086 29.5801Z" fill="#3D7AD3"/>
<path d="M76.041 45.4901C76.041 45.4901 92.111 30.3201 102.921 29.5801C102.921 29.5801 89.0609 43.2201 89.0609 45.4901" fill="#3D7AD3"/>
<path d="M103.321 66.59C103.321 84.17 81.6408 98.41 54.9008 98.41C28.1508 98.41 6.4707 84.17 6.4707 66.59C6.4707 49.02 28.1508 34.77 54.9008 34.77C81.6408 34.77 103.321 49.02 103.321 66.59Z" fill="#4082E6"/>
<path d="M23.4404 84.5901C23.4404 84.5901 54.8904 99.4201 86.3304 84.5901H23.4404Z" fill="#59A3FC"/>
<path d="M23.4404 84.5901C23.4404 84.5901 54.8904 99.4201 86.3304 84.5901" stroke="#59A3FC" stroke-width="0.8" stroke-linecap="round" stroke-linejoin="round"/>
<path d="M79.2103 87.88H30.5903C20.6803 87.88 12.5703 79.77 12.5703 69.86V63.51C12.5703 53.6 20.6803 45.49 30.5903 45.49H79.2103C89.1203 45.49 97.2303 53.6 97.2303 63.51V69.86C97.2303 79.77 89.1203 87.88 79.2103 87.88Z" fill="#59A3FC"/>
<path d="M102.921 29.58C98.5509 30.51 93.2608 32.98 87.6808 36.7C83.4908 39.49 79.1409 42.9699 74.8909 47.0399C74.5909 47.3333 74.2908 47.6266 73.9908 47.9199C66.8508 54.9299 61.3508 62.34 58.0808 68.84C57.8408 72.24 56.7909 75.2999 54.9009 77.7799C53.0009 75.2999 51.9608 72.2299 51.7108 68.8199V68.7999C48.4308 62.3099 42.9408 54.9199 35.8308 47.9199C35.5241 47.6266 35.2209 47.3333 34.9209 47.0399C30.6909 42.9799 26.3409 39.5 22.1509 36.71C16.5509 32.98 11.2509 30.51 6.88086 29.58C14.2709 24.3 26.6208 26.1899 37.7408 33.9199C43.0808 33.3399 48.8709 33.02 54.9209 33.02C60.9609 33.02 66.7408 33.3399 72.0708 33.9199C83.2108 26.1899 95.5309 24.32 102.921 29.58Z" fill="#73ACFF"/>
<path d="M28.791 62.04C29.411 64.34 29.7309 66.72 29.7409 69.1C29.7409 70.19 29.7209 71.4001 30.4409 72.2101C30.7809 72.5901 31.2509 72.8401 31.7309 72.9901C33.1709 73.4401 34.7408 73.1 36.1809 72.67C37.1609 72.37 38.1275 72.0301 39.0809 71.6501C39.9309 71.3001 40.821 70.8801 41.291 70.0801C41.381 69.9401 41.4509 69.7801 41.4009 69.6201C41.3609 69.4601 41.2109 69.3501 41.0709 69.2601C37.4642 66.8734 33.8576 64.4834 30.2509 62.0901C29.9909 61.9101 29.7109 61.7301 29.4009 61.7501C29.0809 61.7701 28.771 62.08 28.791 62.04Z" fill="#BE1E2D"/>
<path d="M68.8711 69.4201C72.5111 67.2001 76.1545 64.9834 79.8011 62.7701C79.9911 62.6501 80.231 62.5201 80.451 62.6101C80.661 62.7001 80.7511 62.9601 80.7811 63.1901C80.8911 64.0501 80.6511 64.9101 80.4111 65.7501C79.9711 67.2434 79.5344 68.7367 79.1011 70.2301C78.7811 71.3201 78.4111 72.49 77.5011 73.16C76.1711 74.14 74.2411 73.6501 72.8911 72.7001C71.5411 71.7501 70.4811 70.4101 68.8711 69.4201Z" fill="#BE1E2D"/>
<path d="M29.2607 61.6201C33.3874 64.4135 37.5141 67.2034 41.6407 69.9901" stroke="#231F20" stroke-width="2" stroke-linecap="round" stroke-linejoin="round"/>
<path d="M28.7607 62.1001C28.9007 64.7668 29.1141 67.4268 29.4008 70.0801C29.4708 70.7401 29.5607 71.4401 29.9507 71.9801C30.4507 72.6901 31.3507 72.9901 32.2107 73.1101C35.5207 73.5501 38.7007 71.8801 41.6207 70.2701" stroke="#231F20" stroke-width="2" stroke-linecap="round" stroke-linejoin="round"/>
<path d="M68.4609 69.4201C71.4809 67.6868 74.501 65.9568 77.521 64.2301C78.5877 63.6235 79.6543 63.0168 80.7209 62.4101C80.8509 62.3401 81.151 62.2301 81.011 62.2401" stroke="#231F20" stroke-width="2" stroke-linecap="round" stroke-linejoin="round"/>
<path d="M68.5908 70.0602C70.1908 70.9502 71.4908 72.3302 73.1108 73.1802C74.7408 74.0202 77.0108 74.1603 78.1808 72.7603C78.7108 72.1303 78.9208 71.3103 79.1208 70.5103C79.8008 67.7703 80.4309 65.0136 81.0109 62.2402" stroke="#231F20" stroke-width="2" stroke-linecap="round" stroke-linejoin="round"/>
<path d="M57.2207 66.69C57.2207 75.79 62.8807 83.8 71.0007 86.76C73.2707 87.59 75.8608 87.78 78.4208 87.78C81.9808 87.78 85.4307 87.25 88.3707 85.71C95.1207 82.18 99.6207 74.8 99.6207 66.69C99.6207 55.05 90.1308 45.61 78.4208 45.61C66.7108 45.61 57.2207 55.05 57.2207 66.69ZM57.2207 66.69H52.5408M52.5807 66.59C52.5807 74.7 48.0807 82.09 41.3407 85.61C38.3907 87.15 34.9407 87.68 31.3807 87.68C28.8207 87.68 26.2307 87.49 23.9607 86.66C15.8407 83.7 10.1807 75.69 10.1807 66.59C10.1807 54.95 19.6707 45.51 31.3807 45.51C43.0907 45.51 52.5807 54.95 52.5807 66.59Z" stroke="black" stroke-width="2.5" stroke-linecap="round" stroke-linejoin="round"/>
<path d="M59.5205 77.2401C59.5205 83.6601 54.8805 84.7401 54.8805 84.7401C54.8805 84.7401 50.2305 83.6601 50.2305 77.2401C50.2305 70.8101 54.8805 70.8101 54.8805 70.8101C54.8805 70.8101 59.5205 70.8101 59.5205 77.2401Z" fill="#FEF747"/>
<mask id="mask0_2051_6166" style="mask-type:luminance" maskUnits="userSpaceOnUse" x="50" y="70" width="10" height="15">
<path d="M59.5205 77.2401C59.5205 83.6601 54.8805 84.7401 54.8805 84.7401C54.8805 84.7401 50.2305 83.6601 50.2305 77.2401C50.2305 70.8101 54.8805 70.8101 54.8805 70.8101C54.8805 70.8101 59.5205 70.8101 59.5205 77.2401Z" fill="white"/>
</mask>
<g mask="url(#mask0_2051_6166)">
<path d="M55.2502 85.8301C55.0302 86.0401 54.7201 86.0401 54.4901 85.8301C53.3401 84.7501 49.9601 81.3001 50.2301 77.9601C50.2301 77.9601 56.5902 75.0501 59.5002 77.9601C62.4102 80.8701 55.2502 85.8301 55.2502 85.8301Z" fill="#F4E84A"/>
</g>
</svg>
