<svg width="97" height="72" viewBox="0 0 97 72" fill="none" xmlns="http://www.w3.org/2000/svg">
<path d="M0.419922 2.98633C0.419922 2.98633 14.28 16.6264 14.28 18.8964H27.2999C27.2999 18.8964 11.2299 3.72633 0.419922 2.98633Z" fill="#3D7AD3"/>
<path d="M69.5703 18.8964C69.5703 18.8964 85.6403 3.72633 96.4503 2.98633C96.4503 2.98633 82.5903 16.6264 82.5903 18.8964" fill="#3D7AD3"/>
<path d="M96.86 39.9962C96.86 57.5762 75.1799 71.8263 48.4299 71.8263C21.6899 71.8263 0 57.5762 0 39.9962C0 22.4262 21.6899 8.17627 48.4299 8.17627C75.1799 8.17627 96.86 22.4262 96.86 39.9962Z" fill="#4082E6"/>
<path d="M16.9697 57.9961C16.9697 57.9961 48.4197 72.8261 79.8597 57.9961H16.9697Z" fill="#59A3FC"/>
<path d="M16.9697 57.9961C16.9697 57.9961 48.4197 72.8261 79.8597 57.9961" stroke="#59A3FC" stroke-width="0.8" stroke-linecap="round" stroke-linejoin="round"/>
<path d="M72.7396 61.2863H24.1296C14.2096 61.2863 6.09961 53.1762 6.09961 43.2662V36.9163C6.09961 27.0063 14.2096 18.8962 24.1296 18.8962H72.7396C82.6496 18.8962 90.7697 27.0063 90.7697 36.9163V43.2662C90.7697 53.1762 82.6496 61.2863 72.7396 61.2863Z" fill="#59A3FC"/>
<path d="M96.45 2.98617C92.09 3.91617 86.79 6.38616 81.21 10.1062C77.02 12.8962 72.6699 16.3762 68.4299 20.4462C68.1233 20.7396 67.82 21.0329 67.52 21.3263C60.38 28.3363 54.88 35.7462 51.61 42.2462C51.37 45.6462 50.3299 48.7062 48.4299 51.1862C46.5299 48.7062 45.49 45.6362 45.25 42.2262V42.2063C41.96 35.7163 36.47 28.3263 29.36 21.3263C29.06 21.0329 28.7566 20.7396 28.45 20.4462C24.22 16.3862 19.8699 12.9062 15.6799 10.1162C10.0799 6.38617 4.77992 3.91617 0.419922 2.98617C7.79992 -2.29383 20.15 -0.403746 31.28 7.32625C36.61 6.74625 42.4 6.42623 48.46 6.42623C54.49 6.42623 60.28 6.74625 65.6 7.32625C76.74 -0.403746 89.06 -2.27383 96.45 2.98617Z" fill="#73ACFF"/>
<path d="M50.75 40.0963C50.75 49.1963 56.41 57.2063 64.53 60.1663C66.8 60.9963 69.39 61.1863 71.95 61.1863C75.51 61.1863 78.96 60.6562 81.91 59.1162C88.65 55.5962 93.15 48.2063 93.15 40.0963C93.15 28.4563 83.66 19.0162 71.95 19.0162C60.24 19.0162 50.75 28.4563 50.75 40.0963ZM50.75 40.0963H46.0699M46.12 39.9962C46.12 48.1062 41.62 55.4962 34.87 59.0262C31.93 60.5562 28.47 61.0863 24.91 61.0863C22.35 61.0863 19.77 60.8963 17.49 60.0663C9.37999 57.1063 3.70996 49.0962 3.70996 39.9962C3.70996 28.3562 13.21 18.9163 24.91 18.9163C36.62 18.9163 46.12 28.3562 46.12 39.9962Z" stroke="black" stroke-width="2.5" stroke-linecap="round" stroke-linejoin="round"/>
<path d="M53.0497 50.6462C53.0497 57.0662 48.4098 58.1562 48.4098 58.1562C48.4098 58.1562 43.7598 57.0662 43.7598 50.6462C43.7598 44.2162 48.4098 44.2163 48.4098 44.2163C48.4098 44.2163 53.0497 44.2162 53.0497 50.6462Z" fill="#FEF747"/>
<mask id="mask0_2051_6464" style="mask-type:luminance" maskUnits="userSpaceOnUse" x="43" y="44" width="11" height="15">
<path d="M53.0497 50.6462C53.0497 57.0662 48.4098 58.1562 48.4098 58.1562C48.4098 58.1562 43.7598 57.0662 43.7598 50.6462C43.7598 44.2162 48.4098 44.2163 48.4098 44.2163C48.4098 44.2163 53.0497 44.2162 53.0497 50.6462Z" fill="white"/>
</mask>
<g mask="url(#mask0_2051_6464)">
<path d="M48.7804 59.2363C48.5604 59.4463 48.2504 59.4463 48.0204 59.2363C46.8704 58.1563 43.5003 54.7063 43.7603 51.3663C43.7603 51.3663 50.1204 48.4563 53.0304 51.3663C55.9404 54.2763 48.7804 59.2363 48.7804 59.2363Z" fill="#F4E84A"/>
<path d="M53.6099 49.5965C53.6099 49.5965 53.9699 53.0064 53.6099 53.5464C53.6099 53.5464 48.8699 54.7065 43.5099 53.7065C43.5099 53.7065 43.2799 52.3064 43.4099 52.0264C43.4099 52.0264 43.0898 49.7764 43.0898 49.2664C43.0898 49.2664 49.6299 46.7865 53.6099 49.5965Z" fill="#F49A4A"/>
<mask id="mask1_2051_6464" style="mask-type:luminance" maskUnits="userSpaceOnUse" x="43" y="48" width="11" height="7">
<path d="M53.6099 49.5965C53.6099 49.5965 53.9699 53.0064 53.6099 53.5464C53.6099 53.5464 48.8699 54.7065 43.5099 53.7065C43.5099 53.7065 43.2799 52.3064 43.4099 52.0264C43.4099 52.0264 43.0898 49.7764 43.0898 49.2664C43.0898 49.2664 49.6299 46.7865 53.6099 49.5965Z" fill="white"/>
</mask>
<g mask="url(#mask1_2051_6464)">
<path d="M43.4297 51.8564C43.4297 51.8564 49.5197 50.4465 53.9197 52.7465L53.5398 53.7965L47.3698 54.2165L44.5497 53.9265L43.5198 53.7765C43.5198 53.7765 43.4297 52.9364 43.4297 51.8564Z" fill="#FF94C5"/>
</g>
</g>
<path d="M44.4897 39.9961C44.4897 49.5261 36.7597 57.2461 27.2297 57.2461C17.6997 57.2461 9.96973 49.5261 9.96973 39.9961C9.96973 30.4761 17.6997 22.7461 27.2297 22.7461C36.7597 22.7461 44.4897 30.4761 44.4897 39.9961Z" fill="white"/>
<path d="M86.8501 39.9961C86.8501 49.5261 79.1201 57.2461 69.5901 57.2461C60.0601 57.2461 52.3301 49.5261 52.3301 39.9961C52.3301 30.4761 60.0601 22.7461 69.5901 22.7461C79.1201 22.7461 86.8501 30.4761 86.8501 39.9961Z" fill="white"/>
<path d="M29.6293 40.5662C31.0493 38.5462 29.6392 35.8562 27.3192 35.4562C24.6892 35.0062 22.5392 37.0962 21.9192 39.5062C21.2092 42.3062 22.6693 44.4362 25.3793 45.1562C27.9993 45.8562 30.6193 45.2162 32.2893 43.0262C35.5493 38.7862 32.6693 33.0462 27.6493 32.1262C22.8193 31.2362 17.3093 35.7162 18.0093 40.8062C18.6893 45.7262 24.8593 49.4062 29.5393 48.3862C34.5993 47.2762 37.3493 41.9761 36.3893 37.1061C35.2593 31.3761 29.6393 28.4162 24.1093 28.7962C21.3693 28.9862 18.9992 30.1762 17.4292 32.4562C15.9292 34.6262 15.3593 37.3962 15.3693 40.0062C15.3893 43.3362 16.5693 46.3962 19.1493 48.5862C21.5493 50.6162 24.8892 52.1362 28.0692 52.1262C31.3692 52.1262 34.2893 50.1562 36.5193 47.8762C38.7093 45.6262 40.4292 42.7261 40.2192 39.4861C40.1592 38.5261 38.6592 38.5161 38.7192 39.4861C38.9992 43.8961 35.1493 48.0561 31.3793 49.8561C27.2893 51.7961 21.9392 49.6462 19.0792 46.4262C16.2292 43.2062 16.2092 37.7362 18.2092 34.0562C20.5292 29.7762 26.0693 29.4362 30.1493 31.3362C33.7493 33.0162 35.7492 37.0362 34.9292 40.9362C34.1292 44.7662 30.4192 47.7362 26.4392 46.9562C22.7292 46.2362 18.1493 42.2762 19.7893 38.1562C21.2993 34.3862 25.8893 32.1862 29.5193 34.4362C31.4593 35.6362 32.6392 37.8163 32.0792 40.0963C31.5292 42.3463 29.6293 44.0062 27.2693 43.9462C26.0593 43.9162 24.2492 43.5262 23.5792 42.3862C22.9192 41.2562 23.2593 39.6962 23.8793 38.6462C24.5293 37.5362 25.7392 36.6662 27.0892 36.9262C28.4392 37.1962 29.1492 38.6462 28.3392 39.8062C27.7792 40.6062 29.0793 41.3562 29.6293 40.5662Z" fill="black"/>
<path d="M68.5289 40.0663C67.9389 39.2163 68.1089 38.0562 68.9989 37.4762C70.1489 36.7362 71.6389 37.2763 72.4889 38.2063C73.1789 38.9663 73.6189 40.0862 73.6289 41.1162C73.6389 42.5662 72.8189 43.4063 71.4989 43.8463C69.3389 44.5663 67.0789 44.1763 65.6989 42.2863C64.5389 40.7063 64.2789 38.5863 65.2389 36.8463C67.3689 32.9863 72.5489 32.9763 75.4289 35.9163C76.9189 37.4463 77.8589 39.5663 77.1889 41.6963C76.5589 43.7063 74.7489 45.2063 72.9789 46.1963C69.5089 48.1363 65.3589 47.3962 63.0989 43.9762C60.9389 40.7262 61.4789 36.0863 64.1989 33.3163C67.1289 30.3563 73.4088 29.2662 76.7988 32.0062C79.9888 34.5862 80.7089 39.9863 79.4889 43.6963C77.9889 48.2863 71.7689 51.8263 67.0589 50.6663C64.6289 50.0763 62.5289 48.3462 60.8989 46.5162C59.2089 44.6362 57.9789 42.3262 58.1389 39.7362C58.2089 38.7762 56.7089 38.7762 56.6389 39.7362C56.4589 42.6562 57.8289 45.2963 59.7089 47.4363C61.5689 49.5563 64.0389 51.5263 66.8389 52.1563C72.1589 53.3663 78.9489 49.5862 80.8089 44.4762C82.5189 39.7762 81.319 32.5663 76.539 30.0463C71.719 27.5063 64.4088 29.4763 61.6688 34.1863C59.1488 38.5463 60.0989 44.3863 64.3089 47.3163C68.5989 50.2963 74.3489 48.3963 77.3489 44.4563C79.0089 42.2763 79.3889 39.6262 78.1389 37.1362C77.0189 34.9262 74.939 33.1462 72.539 32.5062C67.729 31.2162 62.2489 35.2563 63.2789 40.4463C63.7889 43.0363 65.869 45.2962 68.539 45.6462C71.389 46.0162 74.9489 44.7063 75.1189 41.4563C75.2689 38.6963 73.2089 35.6462 70.2689 35.6462C67.6489 35.6362 65.6089 38.4963 67.2289 40.8163C67.7789 41.6063 69.0789 40.8563 68.5289 40.0663Z" fill="black"/>
</svg>
