<svg width="97" height="77" viewBox="0 0 97 77" fill="none" xmlns="http://www.w3.org/2000/svg">
<path d="M0.419922 7.6001C0.419922 7.6001 14.2799 21.2301 14.2799 23.5001H27.2999C27.2999 23.5001 11.2299 8.3401 0.419922 7.6001Z" fill="#3D7AD3"/>
<path d="M69.5703 23.5001C69.5703 23.5001 85.6403 8.3401 96.4503 7.6001C96.4503 7.6001 82.5903 21.2301 82.5903 23.5001" fill="#3D7AD3"/>
<path d="M96.86 44.61C96.86 62.18 75.1801 76.4301 48.4301 76.4301C21.6801 76.4301 0 62.18 0 44.61C0 27.04 21.6801 12.79 48.4301 12.79C75.1801 12.79 96.86 27.04 96.86 44.61Z" fill="#4082E6"/>
<path d="M16.9697 62.6001C16.9697 62.6001 48.4197 77.4401 79.8597 62.6001H16.9697Z" fill="#59A3FC"/>
<path d="M16.9697 62.6001C16.9697 62.6001 48.4197 77.4401 79.8597 62.6001" stroke="#59A3FC" stroke-width="0.8" stroke-linecap="round" stroke-linejoin="round"/>
<path d="M72.7396 65.9H24.1196C14.2096 65.9 6.09961 57.79 6.09961 47.87V41.53C6.09961 31.61 14.2096 23.5 24.1196 23.5H72.7396C82.6496 23.5 90.7697 31.61 90.7697 41.53V47.87C90.7697 57.79 82.6496 65.9 72.7396 65.9Z" fill="#59A3FC"/>
<path d="M58.21 47.1901C58.21 47.1901 69.93 34.8202 82.59 47.4702" stroke="black" stroke-width="2.5" stroke-linecap="round" stroke-linejoin="round"/>
<path d="M38.6095 47.7901C38.6095 47.7901 27.8395 34.58 14.2695 46.25" stroke="black" stroke-width="2.5" stroke-linecap="round" stroke-linejoin="round"/>
<path d="M96.4498 7.59999C92.0898 8.52999 86.7898 11 81.2098 14.72C77.0198 17.5 72.6699 20.98 68.4299 25.05C68.1233 25.3433 67.8199 25.6366 67.5199 25.9299C60.3799 32.9399 54.8799 40.35 51.6099 46.86C51.3699 50.25 50.3299 53.31 48.4299 55.79C46.5299 53.31 45.4899 50.24 45.2499 46.83V46.82C41.9599 40.33 36.4699 32.9299 29.3599 25.9299C29.0599 25.6366 28.7565 25.3433 28.4498 25.05C24.2198 21 19.8699 17.51 15.6799 14.73C10.0799 11 4.77992 8.52999 0.419922 7.59999C7.79992 2.31999 20.1499 4.19996 31.2699 11.94C36.6099 11.35 42.3998 11.03 48.4598 11.03C54.4898 11.03 60.2799 11.35 65.5999 11.94C76.7399 4.19996 89.0598 2.32999 96.4498 7.59999Z" fill="#73ACFF"/>
<path d="M50.75 44.71C50.75 53.81 56.41 61.82 64.53 64.78C66.8 65.6 69.39 65.79 71.95 65.79C75.51 65.79 78.96 65.27 81.91 63.73C88.65 60.2 93.15 52.82 93.15 44.71C93.15 33.06 83.66 23.62 71.95 23.62C60.24 23.62 50.75 33.06 50.75 44.71ZM50.75 44.71H46.0699M46.11 44.61C46.11 52.72 41.62 60.1 34.87 63.63C31.93 65.17 28.47 65.7001 24.91 65.7001C22.35 65.7001 19.77 65.5001 17.49 64.6801C9.37999 61.7201 3.70996 53.71 3.70996 44.61C3.70996 32.97 13.21 23.53 24.91 23.53C36.62 23.53 46.11 32.97 46.11 44.61Z" stroke="black" stroke-width="2.5" stroke-linecap="round" stroke-linejoin="round"/>
<path d="M53.08 55.2501C53.08 61.6701 48.4301 62.7501 48.4301 62.7501C48.4301 62.7501 43.79 61.6701 43.79 55.2501C43.79 48.8201 48.4301 48.8201 48.4301 48.8201C48.4301 48.8201 53.08 48.8201 53.08 55.2501Z" fill="#FEF747"/>
<mask id="mask0_2051_6277" style="mask-type:luminance" maskUnits="userSpaceOnUse" x="43" y="48" width="11" height="15">
<path d="M53.08 55.2501C53.08 61.6701 48.4301 62.7501 48.4301 62.7501C48.4301 62.7501 43.79 61.6701 43.79 55.2501C43.79 48.8201 48.4301 48.8201 48.4301 48.8201C48.4301 48.8201 53.08 48.8201 53.08 55.2501Z" fill="white"/>
</mask>
<g mask="url(#mask0_2051_6277)">
<path d="M53.0598 55.97C48.1198 58.39 43.7799 55.97 43.7799 55.97C43.5199 59.31 46.8899 62.76 48.0499 63.84C48.2699 64.05 48.5798 64.05 48.8098 63.84C49.9598 62.76 53.3198 59.31 53.0598 55.97Z" fill="#F4E84A"/>
</g>
<path fill-rule="evenodd" clip-rule="evenodd" d="M96.4597 9.44C96.4597 14.65 75.2497 18.88 49.0897 18.88C22.9297 18.88 1.71973 14.65 1.71973 9.44C1.71973 4.22 22.9297 0 49.0897 0C75.2497 0 96.4597 4.22 96.4597 9.44ZM82.9897 9.44C82.9897 6.92 60.6197 4.87 47.3497 4.87C34.0797 4.87 13.0498 6.92 13.0498 9.44C13.0498 11.96 34.0797 14.01 47.3497 14.01C60.6197 14.01 82.9897 11.96 82.9897 9.44Z" fill="#FEF747"/>
<path d="M93.09 51.7C93.09 54.13 89.37 56.11 84.79 56.11C80.21 56.11 76.5 54.13 76.5 51.7C76.5 49.26 80.21 47.28 84.79 47.28C89.37 47.28 93.09 49.26 93.09 51.7Z" fill="#FF94C5"/>
<path d="M21.6799 51.7C21.6799 54.13 17.9699 56.11 13.3899 56.11C8.79989 56.11 5.08984 54.13 5.08984 51.7C5.08984 49.26 8.79989 47.28 13.3899 47.28C17.9699 47.28 21.6799 49.26 21.6799 51.7Z" fill="#FF94C5"/>
</svg>
