<svg width="97" height="72" viewBox="0 0 97 72" fill="none" xmlns="http://www.w3.org/2000/svg">
<path d="M0.419922 2.98901C0.419922 2.98901 14.2799 16.629 14.2799 18.899H27.2999C27.2999 18.899 11.2299 3.72901 0.419922 2.98901Z" fill="#3D7AD3"/>
<path d="M69.5703 18.899C69.5703 18.899 85.6403 3.72901 96.4503 2.98901C96.4503 2.98901 82.5903 16.629 82.5903 18.899" fill="#3D7AD3"/>
<path d="M96.86 39.999C96.86 57.579 75.18 71.819 48.43 71.819C21.68 71.819 0 57.579 0 39.999C0 22.429 21.68 8.17896 48.43 8.17896C75.18 8.17896 96.86 22.429 96.86 39.999Z" fill="#4082E6"/>
<path d="M16.9697 57.989C16.9697 57.989 48.4197 72.829 79.8597 57.989H16.9697Z" fill="#59A3FC"/>
<path d="M16.9697 57.989C16.9697 57.989 48.4197 72.829 79.8597 57.989" stroke="#59A3FC" stroke-width="0.8" stroke-linecap="round" stroke-linejoin="round"/>
<path d="M72.7396 61.2889H24.1296C14.2096 61.2889 6.09961 53.1789 6.09961 43.2689V36.9189C6.09961 27.0089 14.2096 18.8989 24.1196 18.8989H72.7396C82.6496 18.8989 90.7695 27.0089 90.7695 36.9189V43.2689C90.7695 53.1789 82.6496 61.2889 72.7396 61.2889Z" fill="#59A3FC"/>
<path d="M96.4499 2.98889C92.0899 3.91889 86.7899 6.38888 81.2099 10.1089C77.0199 12.8989 72.6699 16.3789 68.4299 20.4489C68.1232 20.7422 67.8199 21.0356 67.5199 21.3289C60.3799 28.3389 54.8799 35.7489 51.6099 42.2489C51.3699 45.6489 50.3299 48.6989 48.4299 51.1889C46.5299 48.6989 45.4899 45.6389 45.2499 42.2289V42.2089C41.9599 35.7189 36.4699 28.3189 29.3599 21.3289C29.0599 21.0356 28.7566 20.7422 28.4499 20.4489C24.2199 16.3889 19.8699 12.9089 15.6799 10.1189C10.0799 6.38889 4.77992 3.91889 0.419922 2.98889C7.79992 -2.29111 20.1499 -0.411083 31.2699 7.32892C36.6099 6.73892 42.3999 6.42889 48.4599 6.42889C54.4899 6.42889 60.2799 6.73892 65.5999 7.32892C76.7399 -0.411083 89.0599 -2.28111 96.4499 2.98889Z" fill="#73ACFF"/>
<path d="M44.52 40.0989C44.52 49.6289 36.79 57.3489 27.26 57.3489C17.73 57.3489 10 49.6289 10 40.0989C10 30.5689 17.73 22.8489 27.26 22.8489C36.79 22.8489 44.52 30.5689 44.52 40.0989Z" fill="white"/>
<path d="M86.8804 40.0989C86.8804 49.6289 79.1503 57.3489 69.6203 57.3489C60.0903 57.3489 52.3604 49.6289 52.3604 40.0989C52.3604 30.5689 60.0903 22.8489 69.6203 22.8489C79.1503 22.8489 86.8804 30.5689 86.8804 40.0989Z" fill="white"/>
<path d="M33.9102 39.3889C31.9702 39.3889 30.3901 37.8089 30.3901 35.8689C30.3901 33.9889 31.8702 32.4689 33.7202 32.3789C31.9702 30.6489 29.7201 29.6089 27.2601 29.6089C21.6801 29.6089 17.1602 34.9689 17.1602 41.5789C17.1602 48.1889 21.6801 53.5489 27.2601 53.5489C32.8401 53.5489 37.3701 48.1889 37.3701 41.5789C37.3635 40.2523 37.1868 38.9889 36.8401 37.7889C36.2201 38.7489 35.1402 39.3889 33.9102 39.3889Z" fill="black"/>
<path d="M77.3498 39.3889C75.4098 39.3889 73.8398 37.8089 73.8398 35.8689C73.8398 34.3189 74.8497 33.0189 76.2397 32.5489C74.4697 30.7189 72.1498 29.6089 69.6198 29.6089C64.0298 29.6089 59.5098 34.9689 59.5098 41.5789C59.5098 48.1889 64.0298 53.5489 69.6198 53.5489C75.1998 53.5489 79.7198 48.1889 79.7198 41.5789C79.7198 40.5856 79.6197 39.6256 79.4197 38.6989C78.8397 39.1289 78.1298 39.3889 77.3498 39.3889Z" fill="black"/>
<path d="M50.7499 40.0989C50.7499 49.1989 56.41 57.2089 64.53 60.1689C66.8 60.9989 69.39 61.189 71.95 61.189C75.51 61.189 78.9599 60.659 81.9099 59.119C88.6499 55.589 93.1499 48.2089 93.1499 40.0989C93.1499 28.4589 83.66 19.019 71.95 19.019C60.24 19.019 50.7499 28.4589 50.7499 40.0989ZM50.7499 40.0989H46.0699M46.11 39.999C46.11 48.109 41.6199 55.499 34.8699 59.019C31.9299 60.559 28.47 61.0889 24.91 61.0889C22.35 61.0889 19.7699 60.899 17.4899 60.069C9.37993 57.109 3.70996 49.099 3.70996 39.999C3.70996 28.359 13.21 18.9189 24.91 18.9189C36.62 18.9189 46.11 28.359 46.11 39.999Z" stroke="black" stroke-width="2.5" stroke-linecap="round" stroke-linejoin="round"/>
<path d="M53.08 50.639C53.08 57.059 48.43 58.149 48.43 58.149C48.43 58.149 43.79 57.059 43.79 50.639C43.79 44.209 48.43 44.209 48.43 44.209C48.43 44.209 53.08 44.209 53.08 50.639Z" fill="#FEF747"/>
<path d="M43.79 49.759C43.79 49.759 48.16 51.959 53.01 49.749L48.41 51.949L43.79 49.759Z" fill="#F49A4A"/>
<path d="M48.43 56.329H48.38C47.79 56.329 46.08 55.159 45.86 54.759L43.79 49.759L48.41 51.619L53.01 49.749L50.93 54.739C50.71 55.139 49.03 56.329 48.43 56.329Z" fill="#F49A4A"/>
<mask id="mask0_2051_5860" style="mask-type:luminance" maskUnits="userSpaceOnUse" x="43" y="49" width="11" height="8">
<path d="M48.43 56.329H48.38C47.79 56.329 46.08 55.159 45.86 54.759L43.79 49.759L48.41 51.619L53.01 49.749L50.93 54.739C50.71 55.139 49.03 56.329 48.43 56.329Z" fill="white"/>
</mask>
<g mask="url(#mask0_2051_5860)">
<path d="M44.8505 53.259C44.8505 53.259 48.1205 51.399 51.4205 53.259C54.7205 55.109 48.1005 57.809 48.1005 57.809L44.4805 56.689L44.8505 53.259Z" fill="#FF94C5"/>
</g>
</svg>
