<svg width="110" height="128" viewBox="0 0 110 128" fill="none" xmlns="http://www.w3.org/2000/svg">
<path d="M59.0058 3.27546C63.7355 3.86792 67.9454 5.59625 71.6356 8.46043C75.4018 11.2655 78.1797 14.8389 79.9691 19.1807C81.8346 23.4633 82.4711 27.9695 81.8786 32.6992C81.2862 37.4288 79.5536 41.6725 76.6809 45.4303C73.8843 49.1289 70.3109 51.9068 65.9607 53.7638C61.6865 55.5617 57.1846 56.1644 52.4549 55.5719C47.7252 54.9795 43.4773 53.2807 39.7111 50.4756C36.0209 47.6114 33.2431 44.038 31.3776 39.7554C29.5882 35.4136 28.9897 30.8779 29.5821 26.1482C30.1746 21.4186 31.8691 17.2044 34.6658 13.5058C37.5384 9.74801 41.1118 6.97018 45.386 5.17227C49.7362 3.31527 54.2762 2.683 59.0058 3.27546ZM57.4948 16.1596C53.7787 15.6941 50.5098 16.5885 47.6882 18.8429C44.8751 21.0297 43.2316 24.0149 42.7576 27.7987C42.2836 31.5824 43.1358 34.9146 45.3142 37.7953C47.501 40.6084 50.4524 42.2477 54.1686 42.7132C57.8848 43.1787 61.1156 42.3138 63.8612 40.1186C66.6152 37.8557 68.2292 34.8325 68.7031 31.0487C69.1771 27.265 68.3545 23.9708 66.2352 21.1662C64.1245 18.2939 61.211 16.6251 57.4948 16.1596Z" fill="#4082E6"/>
<path d="M29.3686 52.1267C38.1561 64.717 52.9227 70.2432 71.066 60.9248" stroke="url(#paint0_linear_542_2262)" stroke-width="10.1465" stroke-linecap="round"/>
<circle cx="55.4702" cy="28.5389" r="7.10258" transform="rotate(7.13997 55.4702 28.5389)" fill="#FEF747"/>
<path d="M28.198 127.509V113.019H8.648V127.509H4.37V95.3092H8.648V109.339H28.198V95.3092H32.43V127.509H28.198ZM60.619 115.963L67.841 127.509H62.919L56.893 117.527C55.789 115.687 54.501 115.089 52.109 115.089H45.439V127.509H41.161V95.3092H53.121C59.975 95.3092 64.529 99.2192 64.529 105.153C64.529 109.247 62.137 112.329 58.411 113.617C59.239 114.123 59.929 114.859 60.619 115.963ZM53.121 111.501C57.399 111.501 60.251 108.971 60.251 105.245C60.251 101.473 57.399 98.9892 53.121 98.9892H45.439V111.501H53.121ZM73.0555 95.3092H77.3335V127.509H73.0555V95.3092ZM97.8589 109.477C104.253 110.995 106.967 113.709 106.967 118.493C106.967 124.197 102.459 127.969 95.6969 127.969C88.7509 127.969 84.7029 123.967 84.3349 118.401H88.5669C88.9349 121.897 91.4189 124.289 95.8809 124.289C99.9749 124.289 102.735 122.035 102.735 118.677C102.735 116.009 100.987 114.445 96.8929 113.433L93.8109 112.697C87.6009 111.133 84.8869 108.511 84.8869 103.865C84.8869 98.4372 89.2109 94.8032 95.6969 94.8032C102.367 94.8032 106.001 98.9892 106.507 104.003H102.183C101.723 100.875 99.5149 98.4832 95.6049 98.4832C91.7409 98.4832 89.1649 100.553 89.1649 103.681C89.1649 106.303 90.7749 107.821 94.6389 108.695L97.8589 109.477Z" fill="#669BEB"/>
<defs>
<linearGradient id="paint0_linear_542_2262" x1="28.4617" y1="56.4247" x2="70.1591" y2="65.2228" gradientUnits="userSpaceOnUse">
<stop stop-color="#4082E6"/>
<stop offset="1" stop-color="#FEF747"/>
</linearGradient>
</defs>
</svg>
