<svg width="546" height="71" viewBox="0 0 546 71" fill="none" xmlns="http://www.w3.org/2000/svg">
<path d="M1.50167 12.6739L13.2784 3.54199V36.2916L30.234 19.4382H47.1895L27.7826 39.0495L50.4581 70.5091H35.6475L18.7941 47.4251L13.2784 52.9408V70.5091H0L1.50167 12.6739Z" fill="white"/>
<path d="M55.5313 43.6459C55.5313 35.5427 57.5401 29.4482 61.5577 25.3625C65.5753 21.2768 70.8526 19.234 77.3897 19.234H78.0025V32.206H77.4918C74.5637 32.206 72.3847 33.1253 70.9547 34.9639C69.5247 36.8024 68.8098 39.6964 68.8098 43.6459V70.5092H55.5313V43.6459Z" fill="white"/>
<path d="M83.0758 44.2587C83.0758 39.5602 84.1994 35.2021 86.4465 31.1845C88.7617 27.0989 91.8941 23.8644 95.8435 21.4811C99.8611 19.0297 104.253 17.804 109.02 17.804C113.378 17.804 117.566 18.8254 121.583 20.8682C125.601 22.843 128.903 25.737 131.491 29.5503C134.147 33.3636 135.543 37.8578 135.679 43.033C135.747 45.212 135.611 47.3229 135.27 49.3658H97.3757C97.9885 51.8853 99.3164 53.8941 101.359 55.3921C103.47 56.8221 106.024 57.5371 109.02 57.5371C111.131 57.5371 112.833 57.2647 114.127 56.72C115.489 56.1752 116.715 55.4602 117.804 54.575L133.636 54.6772C131.525 59.3757 128.291 63.189 123.933 66.117C119.574 69.0451 114.74 70.5091 109.428 70.5091C104.594 70.5091 100.168 69.3515 96.15 67.0363C92.1324 64.653 88.9319 61.4526 86.5486 57.435C84.2334 53.4174 83.0758 49.0253 83.0758 44.2587ZM121.481 38.743C120.46 36.3597 118.825 34.4531 116.578 33.0231C114.399 31.525 112.016 30.776 109.428 30.776C106.568 30.776 104.117 31.491 102.074 32.9209C100.031 34.3509 98.4652 36.2916 97.3757 38.743H121.481Z" fill="white"/>
<path d="M167.122 70.5091C162.355 70.5091 157.963 69.3515 153.945 67.0363C149.928 64.653 146.727 61.4526 144.344 57.435C141.961 53.3493 140.769 48.9232 140.769 44.1565C140.769 39.3899 141.961 34.9978 144.344 30.9803C146.727 26.8946 149.928 23.6941 153.945 21.3789C157.963 18.9956 162.355 17.804 167.122 17.804C171.888 17.804 176.28 18.9956 180.298 21.3789C184.316 23.6941 187.482 26.8946 189.797 30.9803C192.181 34.9978 193.372 39.3899 193.372 44.1565V69.692H180.094V64.2785C179.345 65.9808 177.71 67.4449 175.191 68.6706C172.671 69.8963 169.982 70.5091 167.122 70.5091ZM167.224 57.5371C170.969 57.5371 174.067 56.2774 176.519 53.7579C178.97 51.1703 180.196 47.9698 180.196 44.1565C180.196 40.3433 178.97 37.1769 176.519 34.6574C174.067 32.0698 170.969 30.776 167.224 30.776C163.479 30.776 160.346 32.0698 157.827 34.6574C155.307 37.1769 154.048 40.3433 154.048 44.1565C154.048 47.9698 155.307 51.1703 157.827 53.7579C160.346 56.2774 163.479 57.5371 167.224 57.5371Z" fill="white"/>
<path d="M198.445 19.4382H212.337L223.981 53.0429L235.727 19.4382H249.618L230.62 70.5091H217.342L198.445 19.4382Z" fill="white"/>
<path d="M288.852 3.27546C293.581 3.86792 297.791 5.59625 301.482 8.46043C305.248 11.2655 308.026 14.8389 309.815 19.1807C311.681 23.4633 312.317 27.9695 311.725 32.6992C311.132 37.4288 309.4 41.6725 306.527 45.4303C303.73 49.1289 300.157 51.9068 295.807 53.7638C291.533 55.5617 287.031 56.1644 282.301 55.5719C277.571 54.9795 273.323 53.2807 269.557 50.4756C265.867 47.6114 263.089 44.038 261.224 39.7554C259.434 35.4136 258.836 30.8779 259.428 26.1482C260.021 21.4186 261.715 17.2044 264.512 13.5058C267.384 9.74801 270.958 6.97018 275.232 5.17227C279.582 3.31527 284.122 2.683 288.852 3.27546ZM287.341 16.1596C283.625 15.6941 280.356 16.5885 277.534 18.8429C274.721 21.0297 273.078 24.0149 272.604 27.7987C272.13 31.5824 272.982 34.9146 275.16 37.7953C277.347 40.6084 280.298 42.2477 284.015 42.7132C287.731 43.1787 290.962 42.3138 293.707 40.1186C296.461 37.8557 298.075 34.8325 298.549 31.0487C299.023 27.265 298.2 23.9708 296.081 21.1662C293.97 18.2939 291.057 16.6251 287.341 16.1596Z" fill="white"/>
<path d="M259.215 52.1267C268.002 64.717 282.769 70.2432 300.912 60.9248" stroke="white" stroke-width="10.1465" stroke-linecap="round"/>
<circle cx="285.316" cy="28.5389" r="7.10258" transform="rotate(7.13997 285.316 28.5389)" fill="white"/>
<path d="M321.575 12.6739L333.352 3.54199V36.2916L350.307 19.4382H367.263L347.856 39.0495L370.531 70.5091H355.721L338.867 47.4251L333.352 52.9408V70.5091H320.073L321.575 12.6739Z" fill="white"/>
<path d="M397.524 70.5092C393.582 70.5092 389.946 69.8635 386.616 68.5721C383.285 67.2127 380.6 65.2416 378.561 62.6588C376.59 60.008 375.605 56.8475 375.605 53.1772H388.247C388.247 54.8084 389.13 56.1338 390.898 57.1533C392.733 58.1729 395.044 58.6826 397.83 58.6826C400.481 58.6826 402.52 58.2408 403.948 57.3572C405.443 56.4057 406.191 55.2162 406.191 53.7889C406.191 52.2936 405.375 51.24 403.744 50.6283C402.112 50.0166 399.496 49.4049 395.893 48.7932C391.883 48.1135 388.553 47.3658 385.902 46.5502C383.251 45.6666 380.94 44.2053 378.969 42.1662C377.066 40.0592 376.114 37.1025 376.114 33.2963C376.114 30.3736 377.032 27.7568 378.867 25.4459C380.77 23.067 383.319 21.2318 386.514 19.9404C389.708 18.5811 393.276 17.9014 397.219 17.9014C403.336 17.9014 408.332 19.3967 412.206 22.3873C416.08 25.31 418.017 29.3881 418.017 34.6217H405.375C405.375 33.1943 404.525 32.0049 402.826 31.0533C401.195 30.1018 399.258 29.626 397.015 29.626C394.84 29.626 393.005 30.0678 391.509 30.9514C390.082 31.835 389.368 32.9564 389.368 34.3158C389.368 35.5393 390.15 36.4568 391.713 37.0686C393.276 37.6803 395.757 38.258 399.156 38.8018C403.166 39.4814 406.53 40.2631 409.249 41.1467C411.968 41.9623 414.347 43.4236 416.386 45.5307C418.425 47.5697 419.444 50.4244 419.444 54.0947C419.512 59.5322 417.507 63.6443 413.429 66.4311C409.419 69.1498 404.117 70.5092 397.524 70.5092Z" fill="white"/>
<path d="M463.644 70.5092V56.0192H444.094V70.5092H439.816V38.3092H444.094V52.3392H463.644V38.3092H467.876V70.5092H463.644ZM496.065 58.9632L503.287 70.5092H498.365L492.339 60.5272C491.235 58.6872 489.947 58.0892 487.555 58.0892H480.885V70.5092H476.607V38.3092H488.567C495.421 38.3092 499.975 42.2192 499.975 48.1532C499.975 52.2472 497.583 55.3292 493.857 56.6172C494.685 57.1232 495.375 57.8592 496.065 58.9632ZM488.567 54.5012C492.845 54.5012 495.697 51.9712 495.697 48.2452C495.697 44.4732 492.845 41.9892 488.567 41.9892H480.885V54.5012H488.567ZM508.502 38.3092H512.78V70.5092H508.502V38.3092ZM533.305 52.4772C539.699 53.9952 542.413 56.7092 542.413 61.4932C542.413 67.1972 537.905 70.9692 531.143 70.9692C524.197 70.9692 520.149 66.9672 519.781 61.4012H524.013C524.381 64.8972 526.865 67.2892 531.327 67.2892C535.421 67.2892 538.181 65.0352 538.181 61.6772C538.181 59.0092 536.433 57.4452 532.339 56.4332L529.257 55.6972C523.047 54.1332 520.333 51.5112 520.333 46.8652C520.333 41.4372 524.657 37.8032 531.143 37.8032C537.813 37.8032 541.447 41.9892 541.953 47.0032H537.629C537.169 43.8752 534.961 41.4832 531.051 41.4832C527.187 41.4832 524.611 43.5532 524.611 46.6812C524.611 49.3032 526.221 50.8212 530.085 51.6952L533.305 52.4772Z" fill="white"/>
</svg>
